HIERARCHY
ROOT hip
{
  OFFSET -5.19305 52.3702 -166.359
  CHANNELS 6 Xposition Yposition Zposition Zrotation Xrotation Yrotation
  JOINT abdomen
  {
    OFFSET 0 20.6881 -0.73152
    CHANNELS 3 Zrotation Xrotation Yrotation
    JOINT chest
    {
      OFFSET 0 11.7043 -0.48768
      CHANNELS 3 Zrotation Xrotation Yrotation
      JOINT neck
      {
        OFFSET 0 22.1894 -2.19456
        CHANNELS 3 Zrotation Xrotation Yrotation
        JOINT head
        {
          OFFSET -0.24384 7.07133 1.2192
          CHANNELS 3 Zrotation Xrotation Yrotation
          JOINT leftEye
          {
            OFFSET 4.14528 8.04674 8.04672
            CHANNELS 3 Zrotation Xrotation Yrotation
            End Site
            {
              OFFSET 1 0 0
            }
          }
          JOINT rightEye
          {
            OFFSET -3.6576 8.04674 8.04672
            CHANNELS 3 Zrotation Xrotation Yrotation
            End Site
            {
              OFFSET 1 0 0
            }
          }
        }
      }
      JOINT rCollar
      {
        OFFSET -2.68224 19.2634 -4.8768
        CHANNELS 3 Zrotation Xrotation Yrotation
        JOINT rShldr
        {
          OFFSET -8.77824 -1.95073 1.46304
          CHANNELS 3 Zrotation Xrotation Yrotation
          JOINT rForeArm
          {
            OFFSET -28.1742 -1.7115 0.48768
            CHANNELS 3 Zrotation Xrotation Yrotation
            JOINT rHand
            {
              OFFSET -22.5879 0.773209 7.07136
              CHANNELS 3 Zrotation Xrotation Yrotation
              JOINT rThumb1
              {
                OFFSET -1.2192 -0.487915 3.41376
                CHANNELS 3 Zrotation Xrotation Yrotation
                JOINT rThumb2
                {
                  OFFSET -3.37035 -0.52449 3.41376
                  CHANNELS 3 Zrotation Xrotation Yrotation
                  End Site
                  {
                    OFFSET -1.78271 -1.18214 1.43049
                  }
                }
              }
              JOINT rIndex1
              {
                OFFSET -7.75947 0.938293 5.60832
                CHANNELS 3 Zrotation Xrotation Yrotation
                JOINT rIndex2
                {
                  OFFSET -2.54057 -0.884171 1.56538
                  CHANNELS 3 Zrotation Xrotation Yrotation
                  End Site
                  {
                    OFFSET -1.62519 -0.234802 1.16502
                  }
                }
              }
              JOINT rMid1
              {
                OFFSET -8.24714 1.18213 3.41376
                CHANNELS 3 Zrotation Xrotation Yrotation
                JOINT rMid2
                {
                  OFFSET -3.10165 -0.590103 1.0647
                  CHANNELS 3 Zrotation Xrotation Yrotation
                  End Site
                  {
                    OFFSET -2.48547 -0.328903 0.83742
                  }
                }
              }
              JOINT rRing1
              {
                OFFSET -8.82822 0.546677 1.51678
                CHANNELS 3 Zrotation Xrotation Yrotation
                JOINT rRing2
                {
                  OFFSET -2.60934 -0.819778 -0.0198488
                  CHANNELS 3 Zrotation Xrotation Yrotation
                  End Site
                  {
                    OFFSET -2.33842 -0.294052 0.168128
                  }
                }
              }
              JOINT rPinky1
              {
                OFFSET -8.27202 -0.0477905 -0.4584
                CHANNELS 3 Zrotation Xrotation Yrotation
                JOINT rPinky2
                {
                  OFFSET -1.82734 -0.647385 -0.700984
                  CHANNELS 3 Zrotation Xrotation Yrotation
                  End Site
                  {
                    OFFSET -1.69225 -0.51767 -0.607171
                  }
                }
              }
            }
          }
        }
      }
      JOINT lCollar
      {
        OFFSET 2.68224 19.2634 -4.8768
        CHANNELS 3 Zrotation Xrotation Yrotation
        JOINT lShldr
        {
          OFFSET 8.77824 -1.95073 1.46304
          CHANNELS 3 Zrotation Xrotation Yrotation
          JOINT lForeArm
          {
            OFFSET 28.1742 -1.7115 0.48768
            CHANNELS 3 Zrotation Xrotation Yrotation
            JOINT lHand
            {
              OFFSET 22.5879 0.773209 7.07136
              CHANNELS 3 Zrotation Xrotation Yrotation
              JOINT lThumb1
              {
                OFFSET 1.2192 -0.487915 3.41376
                CHANNELS 3 Zrotation Xrotation Yrotation
                JOINT lThumb2
                {
                  OFFSET 3.37035 -0.52449 3.41376
                  CHANNELS 3 Zrotation Xrotation Yrotation
                  End Site
                  {
                    OFFSET 1.78271 -1.18214 1.43049
                  }
                }
              }
              JOINT lIndex1
              {
                OFFSET 7.75947 0.938293 5.60832
                CHANNELS 3 Zrotation Xrotation Yrotation
                JOINT lIndex2
                {
                  OFFSET 2.54057 -0.884171 1.56538
                  CHANNELS 3 Zrotation Xrotation Yrotation
                  End Site
                  {
                    OFFSET 1.62519 -0.234802 1.16502
                  }
                }
              }
              JOINT lMid1
              {
                OFFSET 8.24714 1.18213 3.41376
                CHANNELS 3 Zrotation Xrotation Yrotation
                JOINT lMid2
                {
                  OFFSET 3.10165 -0.590103 1.0647
                  CHANNELS 3 Zrotation Xrotation Yrotation
                  End Site
                  {
                    OFFSET 2.48547 -0.328903 0.83742
                  }
                }
              }
              JOINT lRing1
              {
                OFFSET 8.82822 0.546677 1.51678
                CHANNELS 3 Zrotation Xrotation Yrotation
                JOINT lRing2
                {
                  OFFSET 2.60934 -0.819778 -0.0198488
                  CHANNELS 3 Zrotation Xrotation Yrotation
                  End Site
                  {
                    OFFSET 2.33842 -0.294052 0.168128
                  }
                }
              }
              JOINT lPinky1
              {
                OFFSET 8.27202 -0.0477905 -0.4584
                CHANNELS 3 Zrotation Xrotation Yrotation
                JOINT lPinky2
                {
                  OFFSET 1.82734 -0.647385 -0.700984
                  CHANNELS 3 Zrotation Xrotation Yrotation
                  End Site
                  {
                    OFFSET 1.69225 -0.51767 -0.607171
                  }
                }
              }
            }
          }
        }
      }
    }
  }
  JOINT rButtock
  {
    OFFSET -8.77824 4.35084 1.2192
    CHANNELS 3 Zrotation Xrotation Yrotation
    JOINT rThigh
    {
      OFFSET 0 -1.70687 -2.19456
      CHANNELS 3 Zrotation Xrotation Yrotation
      JOINT rShin
      {
        OFFSET 0 -36.8199 0.73152
        CHANNELS 3 Zrotation Xrotation Yrotation
        JOINT rFoot
        {
          OFFSET 0.73152 -45.1104 -5.12064
          CHANNELS 3 Zrotation Xrotation Yrotation
          End Site
          {
            OFFSET -1.1221 -3.69964 12.103
          }
        }
      }
    }
  }
  JOINT lButtock
  {
    OFFSET 8.77824 4.35084 1.2192
    CHANNELS 3 Zrotation Xrotation Yrotation
    JOINT lThigh
    {
      OFFSET 0 -1.70687 -2.19456
      CHANNELS 3 Zrotation Xrotation Yrotation
      JOINT lShin
      {
        OFFSET 0 -36.8199 0.73152
        CHANNELS 3 Zrotation Xrotation Yrotation
        JOINT lFoot
        {
          OFFSET -0.73152 -45.1104 -5.12064
          CHANNELS 3 Zrotation Xrotation Yrotation
          End Site
          {
            OFFSET 1.1221 -3.69964 12.103
          }
        }
      }
    }
  }
}
MOTION
Frames:	6
Frame Time:	0.00833333
-1.07212 47.0365 195.417 -11.3105 14.5778 -26.4313 11.2783 5.68929 4.02683 1.59858 -7.43325 1.0146 -0.48182 12.5645 6.31217 6.48199 -24.8334 13.9886 -0 0 0 -0 0 0 2.27584e-013 5.70095e-013 -2.88725e-013 107.341 46.0176 -57.4535 -27.3565 -42.9794 89.4489 -9.0297 -61.6271 -15.083 2.81345e-009 -4.81933e-009 -1.98118e-010 4.84367e-009 -8.07618e-009 -1.98008e-010 2.81346e-009 -4.81935e-009 -1.98139e-010 7.73091 5.47488 0.417314 2.81345e-009 -4.81933e-009 -1.9813e-010 2.90554 0.965183 0.102902 2.81346e-009 -4.81934e-009 -1.98127e-010 10.2786 0.731801 0.0259123 2.81344e-009 -4.81933e-009 -1.98114e-010 2.22167 -0.733487 -0.20892 2.27493e-013 5.70096e-013 -2.88988e-013 -63.2718 -21.7226 -79.8503 7.48201 -2.73345 -13.1485 12.3378 66.3946 -18.7598 7.3108e-010 -2.78076e-008 3.62916e-009 1.44747e-009 -4.79975e-008 6.18514e-009 7.31077e-010 -2.78076e-008 3.62917e-009 -7.73091 5.47488 -0.417314 7.31078e-010 -2.78076e-008 3.62917e-009 -2.90554 0.965183 -0.102902 7.31075e-010 -2.78076e-008 3.62917e-009 -10.2786 0.731801 -0.0259123 7.31086e-010 -2.78076e-008 3.62917e-009 -2.22167 -0.733487 0.20892 -2.03217e-016 0 -3.88251e-019 -11.544 12.5064 -5.27115 0.105535 30.1806 2.61679 -7.89344 -15.6932 -32.7184 2.03217e-016 0 3.88251e-019 96.1337 -55.7458 84.9547 5.83444 80.1051 -5.23318 -1.61106 0.294019 -12.8882 
-1.08493 46.9911 195.463 -11.3029 14.5838 -26.4386 11.2733 5.65839 4.03502 1.60774 -7.43721 1.01625 -0.471066 12.5664 6.30585 6.42517 -24.8582 13.9648 -0 0 0 -0 0 0 3.5785e-013 8.53979e-013 1.11419e-013 107.345 45.9512 -57.4522 -27.3539 -42.9874 89.4644 -9.00773 -61.5883 -15.0581 2.07712e-009 -3.07586e-009 1.69654e-010 3.55909e-009 -5.09609e-009 4.03749e-010 2.07713e-009 -3.07587e-009 1.69632e-010 7.73091 5.47488 0.417314 2.07712e-009 -3.07586e-009 1.69641e-010 2.90554 0.965183 0.102902 2.07714e-009 -3.07587e-009 1.69644e-010 10.2786 0.731801 0.0259123 2.07712e-009 -3.07585e-009 1.69657e-010 2.22167 -0.733487 -0.20892 3.57798e-013 8.53979e-013 1.1117e-013 -63.2833 -21.7145 -79.8302 7.47963 -2.7324 -13.1438 12.305 66.3559 -18.7241 3.17841e-009 -3.34733e-008 3.45479e-009 5.6313e-009 -5.67741e-008 5.75858e-009 3.17841e-009 -3.34733e-008 3.4548e-009 -7.73091 5.47488 -0.417314 3.17841e-009 -3.34733e-008 3.45479e-009 -2.90554 0.965183 -0.102902 3.1784e-009 -3.34733e-008 3.4548e-009 -10.2786 0.731801 -0.0259123 3.17842e-009 -3.34733e-008 3.4548e-009 -2.22167 -0.733487 0.20892 -2.03217e-016 0 -3.88251e-019 -11.5666 12.5418 -5.24298 0.105589 30.1786 2.62136 -7.90312 -15.7096 -32.7321 2.03217e-016 0 3.88251e-019 96.2258 -55.725 85.048 5.90635 80.2027 -5.29993 -1.63004 0.212639 -12.8853 
-1.09714 46.9463 195.508 -11.292 14.5806 -26.4624 11.2552 5.64119 4.05773 1.61779 -7.43334 1.02227 -0.445558 12.537 6.29884 6.35488 -24.8507 13.9341 -0 0 0 -0 0 0 4.69995e-013 9.09869e-013 4.16742e-013 107.347 45.8861 -57.4409 -27.3513 -42.9959 89.4806 -8.98435 -61.5469 -15.0315 2.87848e-010 1.76716e-010 4.19187e-010 4.7084e-010 3.7975e-010 7.44944e-010 2.8786e-010 1.76702e-010 4.19166e-010 7.73091 5.47488 0.417314 2.87846e-010 1.76717e-010 4.19176e-010 2.90554 0.965183 0.102902 2.8786e-010 1.76704e-010 4.19179e-010 10.2786 0.731801 0.0259123 2.87842e-010 1.7672e-010 4.19192e-010 2.22167 -0.733487 -0.20892 4.69952e-013 9.09868e-013 4.16507e-013 -63.2828 -21.7053 -79.8172 7.47705 -2.73151 -13.1401 12.3072 66.3585 -18.7265 4.19175e-009 -2.87383e-008 2.3731e-009 7.31079e-009 -4.80909e-008 3.85572e-009 4.19175e-009 -2.87383e-008 2.3731e-009 -7.73091 5.47488 -0.417314 4.19175e-009 -2.87383e-008 2.3731e-009 -2.90554 0.965183 -0.102902 4.19175e-009 -2.87383e-008 2.37311e-009 -10.2786 0.731801 -0.0259123 4.19176e-009 -2.87383e-008 2.37311e-009 -2.22167 -0.733487 0.20892 -2.03217e-016 0 -3.88251e-019 -11.6028 12.5651 -5.19702 0.106755 30.196 2.62611 -7.92581 -15.7589 -32.7287 2.03217e-016 0 3.88251e-019 96.2973 -55.6927 85.1249 5.9785 80.2989 -5.36732 -1.64639 0.133632 -12.867 
-1.1099 46.9047 195.553 -11.2787 14.5704 -26.499 11.2275 5.63524 4.09214 1.62907 -7.42537 1.03189 -0.40951 12.4867 6.29101 6.27024 -24.8227 13.8968 -0 0 0 -0 0 0 5.77257e-013 8.31765e-013 6.88124e-013 107.35 45.8198 -57.4245 -27.3482 -43.0056 89.4993 -8.95786 -61.4998 -15.0013 -2.27141e-009 4.58299e-009 6.15105e-010 -3.93808e-009 7.7706e-009 9.52758e-010 -2.2714e-009 4.58298e-009 6.15085e-010 7.73091 5.47488 0.417314 -2.27141e-009 4.58299e-009 6.15096e-010 2.90554 0.965183 0.102902 -2.2714e-009 4.58298e-009 6.15099e-010 10.2786 0.731801 0.0259123 -2.27142e-009 4.58299e-009 6.15111e-010 2.22167 -0.733487 -0.20892 5.77208e-013 8.31765e-013 6.87904e-013 -63.274 -21.6945 -79.8098 7.47376 -2.73059 -13.136 12.3303 66.3858 -18.7517 4.4267e-009 -1.75098e-008 6.7806e-010 7.62465e-009 -2.84555e-008 9.44993e-010 4.4267e-009 -1.75098e-008 6.78068e-010 -7.73091 5.47488 -0.417314 4.4267e-009 -1.75098e-008 6.78065e-010 -2.90554 0.965183 -0.102902 4.42669e-009 -1.75098e-008 6.78068e-010 -10.2786 0.731801 -0.0259123 4.42671e-009 -1.75098e-008 6.78066e-010 -2.22167 -0.733487 0.20892 -2.03217e-016 0 -3.88251e-019 -11.6494 12.5794 -5.13772 0.108613 30.2283 2.63102 -7.95767 -15.8329 -32.7114 2.03217e-016 0 3.88251e-019 96.3524 -55.6527 85.1874 6.0504 80.393 -5.4348 -1.66081 0.0561901 -12.8356 
-1.12315 46.8691 195.601 -11.2672 14.5641 -26.5332 11.204 5.62504 4.12248 1.63943 -7.41451 1.04017 -0.374812 12.4339 6.28545 6.19475 -24.7916 13.866 -0 0 0 -0 0 0 6.5941e-013 6.99169e-013 8.9142e-013 107.353 45.7643 -57.4099 -27.3452 -43.0151 89.5177 -8.93079 -61.4515 -14.9705 -4.69821e-009 8.68299e-009 7.4928e-010 -8.11611e-009 1.46387e-008 1.06013e-009 -4.6982e-009 8.68298e-009 7.49263e-010 7.73091 5.47488 0.417314 -4.69821e-009 8.68298e-009 7.49275e-010 2.90554 0.965183 0.102902 -4.69821e-009 8.68298e-009 7.49278e-010 10.2786 0.731801 0.0259123 -4.69822e-009 8.68299e-009 7.49289e-010 2.22167 -0.733487 -0.20892 6.59348e-013 6.99169e-013 8.91212e-013 -63.2656 -21.6888 -79.8059 7.46884 -2.72934 -13.1292 12.3624 66.4236 -18.7868 4.2747e-009 -5.16884e-009 -1.01889e-009 7.27527e-009 -7.05576e-009 -1.94936e-009 4.2747e-009 -5.16884e-009 -1.01888e-009 -7.73091 5.47488 -0.417314 4.2747e-009 -5.16885e-009 -1.01888e-009 -2.90554 0.965183 -0.102902 4.27469e-009 -5.16884e-009 -1.01888e-009 -10.2786 0.731801 -0.0259123 4.27471e-009 -5.16884e-009 -1.01889e-009 -2.22167 -0.733487 0.20892 -2.03217e-016 0 -3.88251e-019 -11.6916 12.5972 -5.07417 0.110671 30.2497 2.6355 -7.98989 -15.9082 -32.6933 2.03217e-016 0 3.88251e-019 96.4181 -55.6178 85.256 6.12396 80.488 -5.50457 -1.67371 -0.018773 -12.7969 
-1.13345 46.8329 195.648 -11.2617 14.5725 -26.5497 11.1985 5.59511 4.13295 1.64672 -7.40199 1.04217 -0.353332 12.3971 6.28522 6.15185 -24.7748 13.8546 -0 0 0 -0 0 0 6.96229e-013 5.91583e-013 9.92482e-013 107.358 45.7314 -57.4039 -27.3428 -43.023 89.5329 -8.90563 -61.4064 -14.9419 -6.09011e-009 1.10167e-008 8.13589e-010 -1.05117e-008 1.85461e-008 1.10001e-009 -6.0901e-009 1.10167e-008 8.13573e-010 7.73091 5.47488 0.417314 -6.09011e-009 1.10167e-008 8.13586e-010 2.90554 0.965183 0.102902 -6.0901e-009 1.10167e-008 8.13589e-010 10.2786 0.731801 0.0259123 -6.09011e-009 1.10167e-008 8.13599e-010 2.22167 -0.733487 -0.20892 6.96155e-013 5.91583e-013 9.92283e-013 -63.2662 -21.6949 -79.8036 7.46132 -2.72747 -13.1173 12.3914 66.4576 -18.8183 4.12718e-009 2.90381e-009 -2.10632e-009 6.96505e-009 6.92012e-009 -3.80308e-009 4.12718e-009 2.90382e-009 -2.10631e-009 -7.73091 5.47488 -0.417314 4.12719e-009 2.90379e-009 -2.10632e-009 -2.90554 0.965183 -0.102902 4.12718e-009 2.90381e-009 -2.10632e-009 -10.2786 0.731801 -0.0259123 4.12719e-009 2.90381e-009 -2.10633e-009 -2.22167 -0.733487 0.20892 -2.03217e-016 0 -3.88251e-019 -11.7147 12.6314 -5.0155 0.112447 30.2343 2.63898 -8.01379 -15.9617 -32.6876 2.03217e-016 0 3.88251e-019 96.5213 -55.6008 85.3514 6.20129 80.5868 -5.57901 -1.6855 -0.0903348 -12.7561 
